<?xml version="1.0" encoding="utf-8"?>
<!-- Generator: Adobe Illustrator 16.0.0, SVG Export Plug-In . SVG Version: 6.00 Build 0)  -->
<!DOCTYPE svg PUBLIC "-//W3C//DTD SVG 1.1//EN" "http://www.w3.org/Graphics/SVG/1.1/DTD/svg11.dtd">
<svg version="1.1" id="Layer_1" xmlns="http://www.w3.org/2000/svg" xmlns:xlink="http://www.w3.org/1999/xlink" x="0px" y="0px"
	 width="198px" height="72.053px" viewBox="0 0 198 72.053" enable-background="new 0 0 198 72.053" xml:space="preserve">
<rect x="83.417" y="57.719" fill="none" width="189.333" height="28.667"/>
<g enable-background="new    ">
	<path fill="#010101" d="M86.021,59.352c-0.064-0.34-0.304-0.51-0.72-0.51c-0.204,0-0.363,0.041-0.477,0.123
		c-0.114,0.082-0.171,0.181-0.171,0.297s0.037,0.207,0.111,0.273c0.074,0.065,0.189,0.127,0.345,0.183l0.846,0.33
		c0.288,0.112,0.51,0.253,0.666,0.423c0.156,0.17,0.234,0.383,0.234,0.64c0,0.352-0.132,0.631-0.396,0.837s-0.64,0.309-1.128,0.309
		c-0.432,0-0.782-0.105-1.05-0.318c-0.3-0.231-0.458-0.56-0.474-0.983h0.702c0,0.32,0.166,0.521,0.498,0.605
		c0.1,0.028,0.232,0.042,0.396,0.042s0.316-0.041,0.456-0.123s0.21-0.191,0.21-0.33c0-0.138-0.038-0.243-0.114-0.317
		c-0.076-0.074-0.2-0.144-0.372-0.207l-0.774-0.306c-0.3-0.116-0.53-0.253-0.69-0.408c-0.16-0.156-0.24-0.372-0.24-0.648
		c0-0.324,0.126-0.58,0.378-0.768c0.256-0.196,0.603-0.294,1.041-0.294s0.776,0.101,1.014,0.303
		c0.238,0.202,0.375,0.485,0.411,0.849H86.021z"/>
	<path fill="#010101" d="M91.294,58.2c0.26,0,0.498,0.043,0.714,0.129c0.216,0.086,0.402,0.213,0.558,0.381
		c0.328,0.352,0.492,0.855,0.492,1.512c0,0.66-0.164,1.17-0.492,1.53c-0.312,0.336-0.738,0.504-1.278,0.504
		c-0.536,0-0.96-0.172-1.272-0.516c-0.328-0.356-0.492-0.862-0.492-1.519c0-0.664,0.164-1.172,0.492-1.523
		C90.325,58.366,90.75,58.2,91.294,58.2z M92.327,60.23c0-0.445-0.093-0.789-0.279-1.031s-0.437-0.363-0.753-0.363
		c-0.316,0-0.568,0.121-0.756,0.363s-0.282,0.586-0.282,1.031c0,0.446,0.094,0.788,0.282,1.026s0.44,0.357,0.756,0.357
		c0.316,0,0.567-0.119,0.753-0.357S92.327,60.677,92.327,60.23z"/>
	<path fill="#010101" d="M95.897,58.278h2.454v0.611h-1.746v1.026h1.596v0.605h-1.596v1.65h-0.708V58.278z"/>
	<path fill="#010101" d="M100.654,58.278h3.12v0.611h-1.206v3.282h-0.707V58.89h-1.207V58.278z"/>
	<path fill="#010101" d="M106.721,58.278l0.858,2.958l0.834-2.7h0.479l0.883,2.712l0.912-2.97h0.797l-1.338,3.894h-0.743
		l-0.732-2.196l-0.726,2.196h-0.744l-1.271-3.894H106.721z"/>
	<path fill="#010101" d="M114.814,58.278h0.889l1.277,3.894h-0.75l-0.27-0.84h-1.445l-0.277,0.84h-0.75L114.814,58.278z
		 M114.695,60.798h1.092l-0.54-1.674L114.695,60.798z"/>
	<path fill="#010101" d="M122.561,59.472c0,0.276-0.078,0.513-0.234,0.708c-0.155,0.196-0.379,0.332-0.672,0.408l1.045,1.584h-0.924
		l-0.858-1.518h-0.54v1.518h-0.708v-3.894h1.44c0.459,0,0.817,0.109,1.073,0.329C122.436,58.82,122.561,59.108,122.561,59.472z
		 M121.043,60.18c0.26,0,0.456-0.059,0.588-0.177s0.197-0.274,0.197-0.468c0-0.194-0.059-0.351-0.18-0.469
		c-0.119-0.117-0.3-0.177-0.539-0.177h-0.732v1.29H121.043z"/>
	<path fill="#010101" d="M125.524,58.278h2.509v0.611h-1.801v1.026h1.686v0.612h-1.686v1.025h1.801v0.618h-2.509V58.278z"/>
	<path fill="#010101" d="M134.555,58.278h2.508v0.611h-1.8v1.026h1.687v0.612h-1.687v1.025h1.8v0.618h-2.508V58.278z"/>
	<path fill="#010101" d="M140.836,58.278l1.717,2.76v-2.76h0.708v3.894h-0.72l-1.771-2.856v2.856h-0.708v-3.894H140.836z"/>
	<path fill="#010101" d="M148.763,61.554c-0.168,0.468-0.489,0.702-0.966,0.702c-0.488,0-0.891-0.184-1.206-0.552
		c-0.328-0.38-0.491-0.866-0.491-1.458c0-0.624,0.176-1.124,0.527-1.5c0.34-0.364,0.777-0.546,1.314-0.546
		c0.363,0,0.668,0.079,0.914,0.236c0.246,0.158,0.439,0.407,0.58,0.747l-0.727,0.168c-0.212-0.34-0.48-0.51-0.805-0.51
		c-0.295,0-0.541,0.126-0.737,0.378c-0.204,0.256-0.306,0.599-0.306,1.026c0,0.404,0.092,0.731,0.275,0.983
		c0.18,0.248,0.42,0.372,0.721,0.372c0.256,0,0.465-0.082,0.629-0.246c0.168-0.168,0.252-0.397,0.252-0.689v-0.024l-0.875-0.018
		v-0.456h1.554v2.004h-0.576L148.763,61.554z"/>
	<path fill="#010101" d="M152.435,58.278h0.708v3.894h-0.708V58.278z"/>
	<path fill="#010101" d="M157.019,58.278l1.716,2.76v-2.76h0.709v3.894h-0.721l-1.77-2.856v2.856h-0.709v-3.894H157.019z"/>
	<path fill="#010101" d="M162.551,58.278h2.508v0.611h-1.801v1.026h1.687v0.612h-1.687v1.025h1.801v0.618h-2.508V58.278z"/>
	<path fill="#010101" d="M168.064,58.278h2.508v0.611h-1.8v1.026h1.687v0.612h-1.687v1.025h1.8v0.618h-2.508V58.278z"/>
	<path fill="#010101" d="M176.477,59.472c0,0.276-0.078,0.513-0.234,0.708c-0.156,0.196-0.38,0.332-0.672,0.408l1.044,1.584h-0.924
		l-0.858-1.518h-0.539v1.518h-0.709v-3.894h1.44c0.46,0,0.817,0.109,1.073,0.329C176.351,58.82,176.477,59.108,176.477,59.472z
		 M174.959,60.18c0.26,0,0.455-0.059,0.588-0.177c0.131-0.118,0.197-0.274,0.197-0.468c0-0.194-0.06-0.351-0.18-0.469
		c-0.12-0.117-0.301-0.177-0.54-0.177h-0.731v1.29H174.959z"/>
</g>
<rect x="82.417" y="8.31" fill="none" width="305.261" height="60"/>
<g enable-background="new    ">
	<path fill="#010101" d="M84.463,10.355h2.596v14.278h-2.596V10.355z"/>
	<path fill="#010101" d="M98.652,14.294c-0.235-1.247-1.115-1.87-2.64-1.87c-0.748,0-1.331,0.15-1.749,0.451
		s-0.627,0.663-0.627,1.089s0.135,0.759,0.407,1.001s0.693,0.466,1.265,0.671l3.102,1.21c1.056,0.411,1.87,0.928,2.442,1.551
		c0.571,0.624,0.858,1.405,0.858,2.344c0,1.29-0.484,2.313-1.453,3.068c-0.967,0.756-2.346,1.133-4.135,1.133
		c-1.584,0-2.868-0.388-3.85-1.166c-1.1-0.85-1.68-2.053-1.738-3.607h2.574c0,1.174,0.608,1.914,1.826,2.222
		c0.366,0.103,0.851,0.154,1.452,0.154c0.601,0,1.158-0.15,1.672-0.451c0.513-0.301,0.77-0.704,0.77-1.21s-0.14-0.895-0.418-1.166
		c-0.279-0.271-0.734-0.524-1.364-0.759l-2.838-1.122c-1.1-0.426-1.943-0.924-2.53-1.496c-0.587-0.572-0.88-1.364-0.88-2.376
		c0-1.188,0.462-2.127,1.386-2.816c0.938-0.718,2.211-1.078,3.817-1.078s2.845,0.371,3.718,1.111
		c0.872,0.741,1.375,1.778,1.507,3.113H98.652z"/>
	<path fill="#010101" d="M108.486,10.355h3.256l4.686,14.278h-2.75l-0.99-3.08h-5.301l-1.013,3.08h-2.75L108.486,10.355z
		 M108.046,19.596h4.005l-1.98-6.138L108.046,19.596z"/>
	<path fill="#010101" d="M122.258,10.355h3.256l4.687,14.278h-2.75l-0.99-3.08h-5.302l-1.012,3.08h-2.75L122.258,10.355z
		 M121.818,19.596h4.004l-1.98-6.138L121.818,19.596z"/>
	<path fill="#010101" d="M137.855,10.069c0.881,0,1.643,0.107,2.289,0.319c0.645,0.213,1.202,0.51,1.672,0.892
		c0.924,0.747,1.525,1.796,1.804,3.146l-2.772,0.506c-0.234-0.748-0.598-1.353-1.088-1.814c-0.492-0.462-1.104-0.693-1.838-0.693
		c-0.998,0-1.804,0.418-2.42,1.254c-0.66,0.909-0.99,2.167-0.99,3.773c0,1.605,0.293,2.859,0.881,3.762
		c0.586,0.902,1.386,1.353,2.397,1.353c1.013,0,1.774-0.245,2.288-0.736s0.77-1.126,0.77-1.903h2.795
		c0,1.599-0.51,2.835-1.529,3.707c-1.02,0.873-2.417,1.309-4.191,1.309c-1.892,0-3.396-0.659-4.51-1.979
		c-1.129-1.35-1.693-3.183-1.693-5.5c0-2.347,0.578-4.18,1.737-5.5C134.57,10.7,136.037,10.069,137.855,10.069z"/>
</g>
<g enable-background="new    ">
	<path fill="#010101" d="M84.463,36.355h5.764c1.584,0,2.809,0.374,3.674,1.122c0.821,0.689,1.232,1.577,1.232,2.662
		c0,0.807-0.224,1.496-0.671,2.068s-1.075,0.976-1.881,1.21c0.806,0.161,1.474,0.524,2.002,1.089s0.792,1.287,0.792,2.167
		c0,1.76-0.873,2.963-2.618,3.608c-0.66,0.234-1.496,0.352-2.508,0.352h-5.786V36.355z M87.059,42.384h3.058
		c0.777,0,1.364-0.168,1.76-0.506c0.396-0.337,0.594-0.796,0.594-1.375s-0.195-1.041-0.583-1.386
		c-0.389-0.345-0.972-0.518-1.749-0.518h-3.08V42.384z M90.183,48.368c0.836,0,1.441-0.169,1.815-0.507
		c0.374-0.337,0.561-0.784,0.561-1.342c0-0.557-0.195-1.008-0.583-1.353c-0.389-0.345-0.987-0.518-1.793-0.518h-3.124v3.719H90.183z
		"/>
	<path fill="#010101" d="M98.697,36.355h9.196V38.6h-6.6v3.762h6.182v2.244h-6.182v3.763h6.6v2.266h-9.196V36.355z"/>
	<path fill="#010101" d="M119.113,40.294c-0.235-1.247-1.115-1.87-2.641-1.87c-0.748,0-1.33,0.15-1.748,0.451
		s-0.627,0.663-0.627,1.089s0.135,0.759,0.406,1.001s0.693,0.466,1.266,0.671l3.102,1.21c1.056,0.411,1.869,0.928,2.441,1.551
		c0.572,0.624,0.858,1.405,0.858,2.344c0,1.29-0.483,2.313-1.452,3.068c-0.968,0.756-2.347,1.133-4.136,1.133
		c-1.584,0-2.868-0.388-3.851-1.166c-1.1-0.85-1.68-2.053-1.737-3.607h2.573c0,1.174,0.609,1.914,1.826,2.222
		c0.367,0.103,0.852,0.154,1.453,0.154c0.601,0,1.158-0.15,1.672-0.451c0.513-0.301,0.77-0.704,0.77-1.21s-0.14-0.895-0.418-1.166
		c-0.279-0.271-0.734-0.524-1.364-0.759l-2.838-1.122c-1.101-0.426-1.943-0.924-2.53-1.496c-0.586-0.572-0.88-1.364-0.88-2.376
		c0-1.188,0.462-2.127,1.386-2.816c0.939-0.718,2.211-1.078,3.817-1.078s2.845,0.371,3.718,1.111
		c0.873,0.741,1.375,1.778,1.508,3.113H119.113z"/>
	<path fill="#010101" d="M131.125,36.069c0.953,0,1.826,0.158,2.617,0.474c0.793,0.315,1.475,0.781,2.047,1.396
		c1.202,1.291,1.804,3.139,1.804,5.544c0,2.42-0.602,4.29-1.804,5.61c-1.145,1.232-2.707,1.848-4.687,1.848
		c-1.966,0-3.521-0.63-4.664-1.892c-1.202-1.306-1.804-3.16-1.804-5.566c0-2.434,0.602-4.297,1.804-5.588
		C127.568,36.679,129.13,36.069,131.125,36.069z M134.908,43.517c0-1.635-0.341-2.896-1.022-3.784
		c-0.683-0.887-1.603-1.331-2.761-1.331c-1.159,0-2.083,0.444-2.772,1.331c-0.689,0.888-1.034,2.149-1.034,3.784
		c0,1.636,0.345,2.89,1.034,3.762c0.689,0.873,1.613,1.31,2.772,1.31c1.158,0,2.078-0.437,2.761-1.31
		C134.567,46.406,134.908,45.152,134.908,43.517z"/>
	<path fill="#010101" d="M151.276,40.733c0,1.013-0.286,1.878-0.858,2.597c-0.571,0.719-1.393,1.217-2.463,1.496l3.827,5.808h-3.388
		l-3.146-5.566h-1.979v5.566h-2.597V36.355h5.281c1.686,0,2.998,0.404,3.938,1.21C150.814,38.344,151.276,39.399,151.276,40.733z
		 M145.711,43.33c0.953,0,1.672-0.217,2.156-0.649c0.483-0.433,0.725-1.004,0.725-1.716c0-0.711-0.219-1.283-0.659-1.716
		s-1.101-0.649-1.979-0.649h-2.685v4.73H145.711z"/>
	<path fill="#010101" d="M158.141,36.355h3.256l4.686,14.278h-2.75l-0.99-3.08h-5.301l-1.013,3.08h-2.75L158.141,36.355z
		 M157.7,45.596h4.005l-1.98-6.138L157.7,45.596z"/>
</g>
<g id="Frame">
	<g>
		<path fill="#010101" d="M64.473,5.36H5.767c-0.623,0-1.127,0.505-1.127,1.127v58.708c0,0.621,0.504,1.125,1.127,1.125h58.706
			c0.623,0,1.127-0.504,1.127-1.125V6.487C65.6,5.865,65.095,5.36,64.473,5.36z M63.346,64.065H6.894V7.614h56.453L63.346,64.065
			L63.346,64.065z"/>
	</g>
</g>
<rect x="33.207" y="42.953" fill="none" width="22.708" height="15.257"/>
<g enable-background="new    ">
	<path fill="#010101" d="M43.818,44.627h4.716c1.296,0,2.298,0.306,3.006,0.918c0.672,0.563,1.008,1.29,1.008,2.178
		c0,0.66-0.183,1.224-0.549,1.692c-0.366,0.468-0.879,0.798-1.539,0.989c0.66,0.133,1.206,0.43,1.638,0.892s0.648,1.053,0.648,1.772
		c0,1.44-0.714,2.425-2.142,2.952c-0.54,0.192-1.224,0.288-2.052,0.288h-4.734V44.627z M45.942,49.559h2.502
		c0.636,0,1.116-0.138,1.44-0.414c0.324-0.275,0.486-0.65,0.486-1.125c0-0.474-0.159-0.852-0.477-1.134
		c-0.318-0.282-0.795-0.423-1.431-0.423h-2.52V49.559z M48.499,54.455c0.684,0,1.179-0.139,1.485-0.414
		c0.306-0.276,0.459-0.643,0.459-1.099s-0.159-0.824-0.477-1.106s-0.807-0.424-1.467-0.424h-2.556v3.043H48.499z"/>
</g>
<g id="Shlash">
	<g>
		<path fill="#010101" d="M55.077,16.359c-0.44-0.439-1.156-0.439-1.597,0L16.12,53.601c-0.441,0.438-0.441,1.15,0,1.59
			c0.221,0.221,0.509,0.33,0.798,0.33s0.578-0.109,0.798-0.33l37.36-37.239C55.518,17.511,55.518,16.798,55.077,16.359z"/>
	</g>
</g>
<rect x="15.232" y="14.453" fill="none" width="22.708" height="15.257"/>
<g enable-background="new    ">
	<path fill="#010101" d="M16.906,16.128h2.124V27.81h-2.124V16.128z"/>
</g>
</svg>
